<svg xmlns="http://www.w3.org/2000/svg" width="644" height="822" viewBox="1057 -85 598 763">
  <defs id="Defs"></defs>
  <rect id="BackgroundRect" x="1047" y="-95" width="628" height="792" fill="white"></rect>
  <g id="EditableElements">
    <path d="M 3668 -557 L -455 -546 L -458 1910 L 3684 1928 z" id="avatar0_path0" fill="rgb(0, 0, 0)"></path>
    <path d="M 1279 334 L 1213 226 L 1069 184 L 1069 401 z" id="avatar0_path1" fill="rgb(255, 179, 4)"></path>
    <path d="M 1560 430 L 1641 465 L 1639 135 L 1526 360 z" id="avatar0_path2" fill="rgb(255, 179, 4)"></path>
    <path d="M 1383 592 L 1386 591 L 1505 540 L 1422 508 z" id="avatar0_path3" fill="rgb(255, 179, 4)"></path>
    <path d="M 1550 434 L 1375 407 L 1275 494 L 1420 500 z" id="avatar0_path4" fill="rgb(255, 254, 4)"></path>
    <path d="M 1639 40 L 1478 69 L 1393 233 L 1640 122 z" id="avatar0_path5" fill="rgb(255, 254, 4)"></path>
    <path d="M 1369 -72 L 1069 -73 L 1069 171 L 1279 72 z" id="avatar0_path6" fill="rgb(64, 0, 155)"></path>
    <path d="M 1641 478 L 1523 542 L 1468 666 L 1642 666 z" id="avatar0_path7" fill="rgb(64, 0, 155)"></path>
    <path d="M 1388 245 L 1300 334 L 1378 393 L 1515 361 z" id="avatar0_path8" fill="rgb(0, 132, 10)"></path>
    <path d="M 1255 499 L 1071 412 L 1070 579 L 1227 574 z" id="avatar0_path9" fill="rgb(0, 132, 10)"></path>
    <path d="M 1343 118 L 1287 81 L 1222 217 L 1381 236 z" id="avatar0_path10" fill="rgb(4, 138, 255)"></path>
    <path d="M 1540 -72 L 1380 -72 L 1351 110 L 1471 63 z" id="avatar0_path11" fill="rgb(0, 132, 10)"></path>
    <path d="M 1461 666 L 1229 666 L 1232 582 L 1379 597 z" id="avatar0_path12" fill="rgb(4, 138, 255)"></path>
    <path d="M 1550 -72 L 1640 -73 L 1638 30 z" id="avatar0_path13" fill="rgb(4, 138, 255)"></path>
    <path d="M 1217 666 L 1069 666 L 1071 594 z" id="avatar0_path14" fill="rgb(255, 179, 4)"></path>
  </g>
</svg>
