<svg xmlns="http://www.w3.org/2000/svg" width="500" height="500" viewBox="0 0 500 500">
  <defs id="Defs">
    <pattern id="hardwood-floor" x="0" y="0" width="200" height="200" patternUnits="userSpaceOnUse">
      <rect x="0" y="0" width="11" height="51" fill="hsl(42, 44%, 46%)"></rect>
      <rect x="10" y="0" width="11" height="51" fill="hsl(44, 37%, 48%)"></rect>
      <rect x="20" y="0" width="11" height="51" fill="hsl(44, 45%, 46%)"></rect>
      <rect x="30" y="0" width="11" height="51" fill="hsl(44, 40%, 50%)"></rect>
      <rect x="40" y="0" width="11" height="51" fill="hsl(43, 38%, 46%)"></rect>
      <rect x="50" y="0" width="51" height="11" fill="hsl(42, 38%, 50%)"></rect>
      <rect x="50" y="10" width="51" height="11" fill="hsl(43, 42%, 46%)"></rect>
      <rect x="50" y="20" width="51" height="11" fill="hsl(44, 41%, 49%)"></rect>
      <rect x="50" y="30" width="51" height="11" fill="hsl(43, 44%, 46%)"></rect>
      <rect x="50" y="40" width="51" height="11" fill="hsl(44, 41%, 50%)"></rect>
      <rect x="0" y="50" width="51" height="11" fill="hsl(42, 36%, 48%)"></rect>
      <rect x="0" y="60" width="51" height="11" fill="hsl(43, 46%, 46%)"></rect>
      <rect x="0" y="70" width="51" height="11" fill="hsl(42, 44%, 49%)"></rect>
      <rect x="0" y="80" width="51" height="11" fill="hsl(43, 40%, 47%)"></rect>
      <rect x="0" y="90" width="51" height="11" fill="hsl(44, 37%, 50%)"></rect>
      <rect x="50" y="50" width="11" height="51" fill="hsl(42, 41%, 50%)"></rect>
      <rect x="60" y="50" width="11" height="51" fill="hsl(44, 39%, 49%)"></rect>
      <rect x="70" y="50" width="11" height="51" fill="hsl(42, 46%, 46%)"></rect>
      <rect x="80" y="50" width="11" height="51" fill="hsl(43, 42%, 49%)"></rect>
      <rect x="90" y="50" width="11" height="51" fill="hsl(42, 39%, 47%)"></rect>
      <rect x="0" y="100" width="11" height="51" fill="hsl(43, 42%, 50%)"></rect>
      <rect x="10" y="100" width="11" height="51" fill="hsl(42, 41%, 47%)"></rect>
      <rect x="20" y="100" width="11" height="51" fill="hsl(44, 40%, 49%)"></rect>
      <rect x="30" y="100" width="11" height="51" fill="hsl(42, 39%, 47%)"></rect>
      <rect x="40" y="100" width="11" height="51" fill="hsl(44, 43%, 48%)"></rect>
      <rect x="50" y="100" width="51" height="11" fill="hsl(42, 43%, 46%)"></rect>
      <rect x="50" y="110" width="51" height="11" fill="hsl(44, 44%, 49%)"></rect>
      <rect x="50" y="120" width="51" height="11" fill="hsl(42, 43%, 46%)"></rect>
      <rect x="50" y="130" width="51" height="11" fill="hsl(43, 40%, 49%)"></rect>
      <rect x="50" y="140" width="51" height="11" fill="hsl(42, 36%, 46%)"></rect>
      <rect x="0" y="150" width="51" height="11" fill="hsl(44, 43%, 50%)"></rect>
      <rect x="0" y="160" width="51" height="11" fill="hsl(42, 37%, 50%)"></rect>
      <rect x="0" y="170" width="51" height="11" fill="hsl(42, 43%, 47%)"></rect>
      <rect x="0" y="180" width="51" height="11" fill="hsl(44, 39%, 50%)"></rect>
      <rect x="0" y="190" width="51" height="11" fill="hsl(43, 43%, 46%)"></rect>
      <rect x="50" y="150" width="11" height="51" fill="hsl(42, 44%, 50%)"></rect>
      <rect x="60" y="150" width="11" height="51" fill="hsl(43, 42%, 46%)"></rect>
      <rect x="70" y="150" width="11" height="51" fill="hsl(42, 43%, 49%)"></rect>
      <rect x="80" y="150" width="11" height="51" fill="hsl(44, 45%, 46%)"></rect>
      <rect x="90" y="150" width="11" height="51" fill="hsl(43, 44%, 49%)"></rect>
      <rect x="100" y="0" width="11" height="51" fill="hsl(43, 40%, 46%)"></rect>
      <rect x="110" y="0" width="11" height="51" fill="hsl(42, 45%, 50%)"></rect>
      <rect x="120" y="0" width="11" height="51" fill="hsl(44, 40%, 50%)"></rect>
      <rect x="130" y="0" width="11" height="51" fill="hsl(42, 45%, 46%)"></rect>
      <rect x="140" y="0" width="11" height="51" fill="hsl(43, 36%, 48%)"></rect>
      <rect x="150" y="0" width="51" height="11" fill="hsl(43, 44%, 46%)"></rect>
      <rect x="150" y="10" width="51" height="11" fill="hsl(44, 36%, 48%)"></rect>
      <rect x="150" y="20" width="51" height="11" fill="hsl(42, 40%, 49%)"></rect>
      <rect x="150" y="30" width="51" height="11" fill="hsl(44, 46%, 50%)"></rect>
      <rect x="150" y="40" width="51" height="11" fill="hsl(43, 37%, 46%)"></rect>
      <rect x="100" y="50" width="51" height="11" fill="hsl(43, 43%, 50%)"></rect>
      <rect x="100" y="60" width="51" height="11" fill="hsl(44, 36%, 47%)"></rect>
      <rect x="100" y="70" width="51" height="11" fill="hsl(42, 45%, 47%)"></rect>
      <rect x="100" y="80" width="51" height="11" fill="hsl(43, 41%, 50%)"></rect>
      <rect x="100" y="90" width="51" height="11" fill="hsl(44, 40%, 47%)"></rect>
      <rect x="150" y="50" width="11" height="51" fill="hsl(43, 37%, 50%)"></rect>
      <rect x="160" y="50" width="11" height="51" fill="hsl(42, 45%, 47%)"></rect>
      <rect x="170" y="50" width="11" height="51" fill="hsl(42, 36%, 48%)"></rect>
      <rect x="180" y="50" width="11" height="51" fill="hsl(42, 46%, 48%)"></rect>
      <rect x="190" y="50" width="11" height="51" fill="hsl(43, 39%, 47%)"></rect>
      <rect x="100" y="100" width="11" height="51" fill="hsl(44, 42%, 49%)"></rect>
      <rect x="110" y="100" width="11" height="51" fill="hsl(42, 43%, 46%)"></rect>
      <rect x="120" y="100" width="11" height="51" fill="hsl(43, 40%, 50%)"></rect>
      <rect x="130" y="100" width="11" height="51" fill="hsl(42, 37%, 47%)"></rect>
      <rect x="140" y="100" width="11" height="51" fill="hsl(44, 39%, 50%)"></rect>
      <rect x="150" y="100" width="51" height="11" fill="hsl(43, 45%, 46%)"></rect>
      <rect x="150" y="110" width="51" height="11" fill="hsl(42, 42%, 48%)"></rect>
      <rect x="150" y="120" width="51" height="11" fill="hsl(44, 38%, 49%)"></rect>
      <rect x="150" y="130" width="51" height="11" fill="hsl(42, 42%, 48%)"></rect>
      <rect x="150" y="140" width="51" height="11" fill="hsl(44, 45%, 49%)"></rect>
      <rect x="100" y="150" width="51" height="11" fill="hsl(42, 43%, 47%)"></rect>
      <rect x="100" y="160" width="51" height="11" fill="hsl(44, 36%, 48%)"></rect>
      <rect x="100" y="170" width="51" height="11" fill="hsl(42, 42%, 47%)"></rect>
      <rect x="100" y="180" width="51" height="11" fill="hsl(44, 45%, 49%)"></rect>
      <rect x="100" y="190" width="51" height="11" fill="hsl(43, 38%, 48%)"></rect>
      <rect x="150" y="150" width="11" height="51" fill="hsl(42, 42%, 46%)"></rect>
      <rect x="160" y="150" width="11" height="51" fill="hsl(44, 43%, 48%)"></rect>
      <rect x="170" y="150" width="11" height="51" fill="hsl(43, 36%, 47%)"></rect>
      <rect x="180" y="150" width="11" height="51" fill="hsl(44, 45%, 49%)"></rect>
      <rect x="190" y="150" width="11" height="51" fill="hsl(44, 37%, 50%)"></rect>
    </pattern>
  </defs>
  <rect id="BackgroundRect" x="-116" y="-10" width="742" height="530" fill="url(#hardwood-floor)"></rect>
  <g id="EditableElements"></g>
</svg>
