<svg xmlns="http://www.w3.org/2000/svg" width="1146" height="822" viewBox="-2124 -318 3502 2512">
  <defs id="Defs"></defs>
  <rect id="BackgroundRect" x="-2134" y="-328" width="3532" height="2542" fill="rgb(1, 171, 230)"></rect>
  <g id="EditableElements">
    <path d="M 542 143 L 866 228 L 614 488 L 675 275 z" id="avatar0_path0" fill="rgb(246, 215, 0)"></path>
    <path d="M 788 249 L 655 172 L 715 266 L 700 399 z" id="avatar0_path1" fill="rgb(0, 17, 163)"></path>
    <path d="M 655 255 L 683 273 L 664 313 L 861 230 z" id="avatar0_path2" fill="rgb(0, 0, 0)"></path>
    <path d="M -154 384 L -206 67 L -459 131 L -466 545 z" id="avatar0_path3" fill="rgb(231, 227, 0)"></path>
    <path d="M -301 257 L -205 67 L -154 384 z" id="avatar0_path4" fill="rgb(0, 17, 163)"></path>
    <path d="M -301 257 L -466 545 L -459 131 z" id="avatar0_path5" fill="rgb(189, 17, 17)"></path>
    <path d="M -466 542 L -463 543 L -599 701 z" id="avatar0_path6" fill="rgb(0, 17, 163)"></path>
    <path d="M -605 622 L -601 702 L -523 692 L -524 613 z" id="avatar0_path7" fill="rgb(0, 17, 163)"></path>
    <path d="M -752 826 L -598 701 L -601 701 L -756 826 z" id="avatar0_path8" fill="rgb(0, 17, 163)"></path>
    <path d="M -762 884 L -745 818 L -809 806 L -833 871 z" id="avatar0_path9" fill="rgb(231, 227, 0)"></path>
    <path d="M -1057 992 L -1054 993 L -829 871 L -831 868 z" id="avatar0_path10" fill="rgb(0, 17, 163)"></path>
    <path d="M -1049 1019 L -1034 981 L -1072 966 L -1087 1004 z" id="avatar0_path11" fill="rgb(189, 17, 17)"></path>
    <path d="M -1086 1003 L -1085 1004 L -1731 1275 L -1792 1301 z" id="avatar0_path12" fill="rgb(0, 17, 163)"></path>
    <path d="M 348 1050 L 262 717 L 26 978 L 80 1331 z" id="avatar0_path13" fill="rgb(246, 176, 0)"></path>
    <path d="M -5 1149 L 274 708 L -152 1011 L -3 994 z" id="avatar0_path14" fill="rgb(0, 41, 195)"></path>
    <path d="M 250 1231 L 327 1088 L 446 1199 L 257 705 z" id="avatar0_path15" fill="rgb(0, 41, 195)"></path>
    <path d="M 185 1076 L 206 907 L 130 1059 L 66 1378 z" id="avatar0_path16" fill="rgb(189, 17, 17)"></path>
    <path d="M -83 1647 L 66 1378 L 68 1369 L -83 1646 z" id="avatar0_path17" fill="rgb(104, 104, 104)"></path>
    <path d="M -255 1583 L -269 1592 L -273 1579 L -277 1590 z" id="avatar0_path18" fill="rgb(1, 171, 230)"></path>
    <path d="M -82 1646 L -83 1645 L -241 1823 L -369 1967 z" id="avatar0_path19" fill="rgb(104, 104, 104)"></path>
    <path d="M 273 675 L 218 727 L 260 722 L 287 746 z" id="avatar0_path20" fill="rgb(1, 171, 230)"></path>
  </g>
</svg>
