<svg xmlns="http://www.w3.org/2000/svg" width="1170" height="822" viewBox="-561 -746 2500 1757">
  <defs id="Defs"></defs>
  <rect id="BackgroundRect" x="-571" y="-756" width="2531" height="1787" fill="rgb(1, 171, 230)"></rect>
  <g id="EditableElements">
    <path d="M 832 -181 L 491 -39 L 187 539 L 1203 606 z" id="avatar0_path0" fill="rgb(132, 132, 132)"></path>
    <path d="M 806 -21 L 652 -41 L 657 33 L 869 42 z" id="avatar1_path0" fill="rgb(255, 255, 255)"></path>
    <path d="M 651 -41 L 806 -20 L 848 -233 L 664 -142 z" id="avatar1_path1" fill="rgb(124, 124, 124)"></path>
    <path d="M 735 15 L 657 32 L 701 124 L 761 84 z" id="avatar1_path2" fill="rgb(124, 124, 124)"></path>
    <path d="M 699 122 L 658 32 L 566 298 L 669 425 z" id="avatar1_path3" fill="rgb(68, 81, 118)"></path>
    <path d="M 431 389 L 490 -39 L 279 360 L 378 342 z" id="avatar1_path4" fill="rgb(68, 81, 118)"></path>
    <path d="M 548 568 L 546 395 L 448 273 L 323 534 z" id="avatar1_path5" fill="rgb(153, 153, 153)"></path>
    <path d="M 910 33 L 869 43 L 807 417 L 979 374 z" id="avatar1_path6" fill="rgb(153, 153, 153)"></path>
    <path d="M 665 -142 L 557 -39 L 618 -45 L 693 -9 z" id="avatar1_path7" fill="rgb(255, 255, 255)"></path>
    <path d="M 805 80 L 760 84 L 773 304 L 793 281 z" id="avatar1_path8" fill="rgb(255, 255, 255)"></path>
    <path d="M 527 440 L 443 643 L 825 579 L 769 410 z" id="avatar1_path9" fill="rgb(37, 128, 38)"></path>
    <path d="M 934 347 L 993 649 L 1197 520 L 1068 317 z" id="avatar1_path10" fill="rgb(37, 128, 38)"></path>
    <path d="M 1453 -25 L 882 -266 L 818 -219 L 1039 389 z" id="avatar1_path11" fill="rgb(132, 132, 132)"></path>
    <path d="M 1080 -182 L 882 -266 L 988 -28 L 1103 -86 z" id="avatar1_path12" fill="rgb(153, 153, 153)"></path>
    <path d="M 1432 -148 L 1013 -193 L 1041 -163 L 1177 -106 z" id="avatar1_path13" fill="rgb(255, 255, 255)"></path>
    <path d="M 1357 373 L 1129 140 L 1030 589 L 1229 634 z" id="avatar1_path14" fill="rgb(153, 153, 153)"></path>
    <path d="M 1614 320 L 1394 160 L 1185 522 L 1501 635 z" id="avatar1_path15" fill="rgb(153, 153, 153)"></path>
    <path d="M 1191 224 L 1307 382 L 1397 161 L 1257 18 z" id="avatar1_path16" fill="rgb(54, 90, 72)"></path>
    <path d="M 1017 332 L 987 -29 L 908 34 L 935 351 z" id="avatar1_path17" fill="rgb(68, 81, 118)"></path>
    <path d="M 1218 398 L 1222 453 L 1432 465 L 1425 420 z" id="avatar1_path18" fill="rgb(54, 90, 72)"></path>
    <path d="M 1409 520 L 1199 502 L 1150 563 L 1393 578 z" id="avatar1_path19" fill="rgb(54, 90, 72)"></path>
    <path d="M -68 912 L 2383 1051 L 2419 617 L -137 491 z" id="avatar1_path20" fill="rgb(58, 198, 60)"></path>
    <path d="M 1668 -9 L 1347 -107 L 1256 19 L 1590 404 z" id="avatar1_path21" fill="rgb(124, 124, 124)"></path>
    <path d="M 1533 78 L 1587 -151 L 1241 -146 L 1218 -107 z" id="avatar1_path22" fill="rgb(132, 132, 132)"></path>
    <path d="M 1575 34 L 1707 -12 L 1684 -164 L 1335 -156 z" id="avatar1_path23" fill="rgb(255, 255, 255)"></path>
    <path d="M 1508 594 L 1852 562 L 1807 -226 L 1661 -202 z" id="avatar1_path24" fill="rgb(68, 81, 118)"></path>
    <path d="M 1831 257 L 1488 605 L 1919 805 L 2000 448 z" id="avatar1_path25" fill="rgb(54, 90, 72)"></path>
    <path d="M 959 670 L 1065 613 L 1008 507 L 902 564 z" id="avatar1_path26" fill="rgb(58, 198, 60)"></path>
    <path d="M 566 622 L 1159 611 L 1073 517 L 717 522 z" id="avatar1_path27" fill="rgb(54, 90, 72)"></path>
    <path d="M 135 604 L 380 611 L 250 431 L -64 494 z" id="avatar1_path28" fill="rgb(54, 90, 72)"></path>
    <path d="M 869 527 L 989 564 L 1045 526 L 989 487 z" id="avatar1_path29" fill="rgb(54, 90, 72)"></path>
    <path d="M 1775 -221 L 1745 446 L 2137 294 L 2030 -330 z" id="avatar1_path30" fill="rgb(124, 124, 124)"></path>
    <path d="M 1843 385 L 2259 675 L 2352 -530 L 2051 -424 z" id="avatar1_path31" fill="rgb(124, 124, 124)"></path>
    <path d="M -573 162 L -590 526 L -131 596 L 144 452 z" id="avatar1_path32" fill="rgb(58, 198, 60)"></path>
    <path d="M 255 437 L 190 337 L 32 413 L 136 454 z" id="avatar1_path33" fill="rgb(153, 153, 153)"></path>
    <path d="M 72 445 L 32 372 L -132 302 L -262 420 z" id="avatar1_path34" fill="rgb(37, 128, 38)"></path>
    <path d="M 229 283 L 152 272 L 140 349 L 217 360 z" id="avatar1_path35" fill="rgb(1, 171, 230)"></path>
    <path d="M -88 1088 L 37 653 L -671 279 L -825 1155 z" id="avatar1_path36" fill="rgb(37, 128, 38)"></path>
    <path d="M 503 709 L -45 619 L -79 787 L 775 841 z" id="avatar1_path37" fill="rgb(37, 128, 38)"></path>
    <path d="M 2320 960 L -97 867 L -136 1068 L 2347 1172 z" id="avatar1_path38" fill="rgb(37, 128, 38)"></path>
    <path d="M 1362 702 L 1009 741 L 1135 933 L 1829 1036 z" id="avatar1_path39" fill="rgb(37, 128, 38)"></path>
    <path d="M 2015 363 L 1722 1011 L 2284 1116 L 2339 766 z" id="avatar1_path40" fill="rgb(37, 128, 38)"></path>
  </g>
</svg>
