<svg xmlns="http://www.w3.org/2000/svg" width="1137" height="821" viewBox="-527.387535613835 -746.063220187932 2433.308093189642 1757.0324929715885"><defs id="Defs"/><rect id="BackgroundRect" fill="rgb(1, 171, 230)" x="-537.387535613835" y="-756.063220187932" width="2463.308093189642" height="1787.0324929715885"/><g id="EditableElements"><path d="M 831.8 -181.4 L 490.9 -39.3 L 186.6 539.2 L 1202.7 605.8 z" id="avatar0_path0" fill="rgb(132, 132, 132)"/><path d="M 805.9 -20.7 L 651.9 -41.3 L 656.7 32.7 L 868.6 42.0 z" id="avatar1_path0" fill="rgb(255, 255, 255)"/><path d="M 650.8214613455809 -40.59548888039661 L 806.1 -20.0 L 847.7 -233.1 L 664.4 -142.5 z" id="avatar1_path1" fill="rgb(124, 124, 124)"/><path d="M 734.8 15.4 L 656.5092789341047 31.59706997800565 L 700.7 123.9 L 760.6415408495063 84.10074477788599 z" id="avatar1_path2" fill="rgb(124, 124, 124)"/><path d="M 698.5 122.2 L 658.3 31.6 L 565.9 298.4 L 669.3 424.5 z" id="avatar1_path3" fill="rgb(68, 81, 118)"/><path d="M 431.4 389.0 L 490.0 -38.6 L 279.3 360.4 L 377.7 341.6 z" id="avatar1_path4" fill="rgb(68, 81, 118)"/><path d="M 547.5 567.5 L 546.0 395.0 L 448.0 272.7 L 323.4 533.7 z" id="avatar1_path5" fill="rgb(153, 153, 153)"/><path d="M 909.6 33.0 L 868.9 43.2 L 807.0 417.0 L 979.4 373.9 z" id="avatar1_path6" fill="rgb(153, 153, 153)"/><path d="M 664.5 -141.6 L 556.7 -38.8 L 617.7 -45.1 L 692.8 -8.7 z" id="avatar1_path7" fill="rgb(255, 255, 255)"/><path d="M 804.9 80.2 L 760.3697535193774 84.10420885328516 L 773.3 304.3 L 792.9 280.9 z" id="avatar1_path8" fill="rgb(255, 255, 255)"/><path d="M 526.501865104757 440.38661408329403 L 443.4 643.2 L 825.3 579.0 L 768.9281183555155 409.81424527535836 z" id="avatar1_path9" fill="rgb(37, 128, 38)"/><path d="M 933.8 347.4 L 992.8388102354194 649.2263439736746 L 1196.5112625991783 520.4776890467057 L 1067.7626076722092 316.80523668294677 z" id="avatar1_path10" fill="rgb(37, 128, 38)"/><path d="M 1453.3774106018689 -24.915474959611856 L 882.2 -266.1 L 817.6 -218.6 L 1038.9 389.1 z" id="avatar1_path11" fill="rgb(132, 132, 132)"/><path d="M 1079.5 -182.5 L 881.5 -266.2 L 988.2382457124594 -27.926887107450426 L 1103.2 -85.7 z" id="avatar1_path12" fill="rgb(153, 153, 153)"/><path d="M 1431.6 -148.5 L 1012.6 -192.8 L 1041.2 -162.9 L 1176.8 -106.4 z" id="avatar1_path13" fill="rgb(255, 255, 255)"/><path d="M 1356.9737968586062 373.0930796816551 L 1128.9 139.8 L 1029.9 589.3 L 1228.633971101656 634.4491379751584 z" id="avatar1_path14" fill="rgb(153, 153, 153)"/><path d="M 1614.1730015555067 319.57493467531947 L 1393.9 159.5 L 1184.988050126659 522.2167167468435 L 1500.901416876845 635.4883014255055 z" id="avatar1_path15" fill="rgb(153, 153, 153)"/><path d="M 1190.8 224.2 L 1307.3 382.4 L 1397.4 161.2 L 1257.1 18.4 z" id="avatar1_path16" fill="rgb(54, 90, 72)"/><path d="M 1016.7 331.9 L 986.6 -29.5 L 907.9 33.6 L 935.4 350.7 z" id="avatar1_path17" fill="rgb(68, 81, 118)"/><path d="M 1217.9 398.4 L 1221.5103578044443 453.040207946718 L 1431.5 464.8 L 1424.9 420.3 z" id="avatar1_path18" fill="rgb(54, 90, 72)"/><path d="M 1408.5 519.5 L 1199.0 502.1 L 1150.0 563.4 L 1393.2 577.7 z" id="avatar1_path19" fill="rgb(54, 90, 72)"/><path d="M -68.5 912.2 L 2383.0 1051.1 L 2418.6 616.6 L -137.5 491.1 z" id="avatar1_path20" fill="rgb(58, 198, 60)"/><path d="M 1668.1 -8.9 L 1346.8 -106.7 L 1256.2 18.5 L 1589.9 403.8 z" id="avatar1_path21" fill="rgb(124, 124, 124)"/><path d="M 1532.6 77.5 L 1587.2 -150.9 L 1240.6 -145.7 L 1218.4 -107.1 z" id="avatar1_path22" fill="rgb(132, 132, 132)"/><path d="M 1574.6 33.7 L 1707.2 -12.4 L 1684.2 -163.6 L 1335.1 -156.2 z" id="avatar1_path23" fill="rgb(255, 255, 255)"/><path d="M 1507.5 594.3 L 1852.3 561.7 L 1807.3 -225.9 L 1661.0 -201.9 z" id="avatar1_path24" fill="rgb(68, 81, 118)"/><path d="M 1831.3 256.8 L 1487.7 604.9 L 1919.3 805.4 L 1999.6838693385596 447.95148428404144 z" id="avatar1_path25" fill="rgb(54, 90, 72)"/><path d="M 958.9921232091704 669.9843631218229 L 1065.2251185272912 613.0347192482087 L 1008.2754746536771 506.80172393008786 L 902.0424793355562 563.7513678037021 z" id="avatar1_path26" fill="rgb(58, 198, 60)"/><path d="M 565.8 621.8 L 1159.4 610.8 L 1072.9 516.6 L 717.0 522.2 z" id="avatar1_path27" fill="rgb(54, 90, 72)"/><path d="M 134.6 603.9 L 380.1 611.4 L 250.1 431.3 L -64.1 493.7 z" id="avatar1_path28" fill="rgb(54, 90, 72)"/><path d="M 869.3 526.6 L 989.2351543048769 564.3221558780779 L 1045.0 525.5 L 989.2351543048769 486.5972711184395 z" id="avatar1_path29" fill="rgb(54, 90, 72)"/><path d="M 1775.2 -221.3 L 1745.3 445.8 L 2136.7 293.7 L 2030.3 -330.0 z" id="avatar1_path30" fill="rgb(124, 124, 124)"/><path d="M 1842.7 385.4 L 2259.1 674.6 L 2352.1 -530.2 L 2051.1 -424.1 z" id="avatar1_path31" fill="rgb(124, 124, 124)"/><path d="M -572.8 161.8 L -590.2 526.2 L -130.64358473191112 596.4798346316423 L 143.944101250242 451.6551073493339 z" id="avatar1_path32" fill="rgb(58, 198, 60)"/><path d="M 254.68685132354534 437.1227267847869 L 189.83269254496636 336.5326118676018 L 31.5 412.6 L 135.5 454.2 z" id="avatar1_path33" fill="rgb(153, 153, 153)"/><path d="M 72.4 444.8 L 31.9 372.3 L -131.6 301.5 L -262.3 419.5 z" id="avatar1_path34" fill="rgb(37, 128, 38)"/><path d="M 228.79813292568096 283.3591513482145 L 151.6593384697287 271.97803975616773 L 140.278226877682 349.11683421212 L 217.4170213336342 360.4979458041667 z" id="avatar1_path35" fill="rgb(1, 171, 230)"/><path d="M -88.48921886861523 1087.5296761973245 L 36.7 653.0 L -671.1 279.1 L -824.8 1154.9 z" id="avatar1_path36" fill="rgb(37, 128, 38)"/><path d="M 503.1 708.7 L -45.1 618.7 L -79.5 787.2 L 774.7 841.2 z" id="avatar1_path37" fill="rgb(37, 128, 38)"/><path d="M 2320.4 959.9 L -97.5 867.4 L -135.9 1067.9 L 2347.4 1171.8 z" id="avatar1_path38" fill="rgb(37, 128, 38)"/><path d="M 1362.2337604442646 702.1430719311552 L 1008.8 741.4 L 1134.8 932.9 L 1828.6 1036.0 z" id="avatar1_path39" fill="rgb(37, 128, 38)"/><path d="M 2014.5 363.3 L 1722.3 1011.4 L 2283.561124722745 1116.167674434218 L 2339.20070011182 765.9649325307709 z" id="avatar1_path40" fill="rgb(37, 128, 38)"/></g></svg>