<svg xmlns="http://www.w3.org/2000/svg" width="814" height="570" viewBox="1856.9270824841597 -1909.42948511392 2249.313460032896 1575.0720788928138"><defs id="Defs"/><rect id="BackgroundRect" x="1846.9270824841597" y="-1919.42948511392" width="2279.313460032896" height="1605.0720788928138" fill="#aadaff"/><g id="EditableElements"><path id="avatar0_path0" d="M 24728 -3507 L -4365 -3377 L -3438 4400 L 24430 4688 z" fill="rgb(242, 241, 238)"/><path d="M 24528 4164 L -3240 4239 L -2735 25851 L 24915 25778 z" id="avatar0_path1" fill="rgb(242, 241, 238)"/><path d="M 9263 -3625 L 7881 -3534 L 7947 4011 L 9550 4089 z" id="avatar0_path2" fill="rgb(170, 218, 255)"/><path d="M 8605 -3684 L 5770 -3873 L 7289 -2485 L 8194 663 z" id="avatar0_path3" fill="rgb(170, 218, 255)"/><path d="M -3279 -4413 L -4733 -4746 L -4635 -3071 L -2817 -863 z" id="avatar0_path5" fill="rgb(242, 241, 238)"/><path d="M -3840 -2915 L 2851 -3143 L -1689 -3710 L -3339 -4564 z" id="avatar0_path8" fill="rgb(242, 241, 238)"/><path d="M 8129 2369 L 6369 4753 L 7582 4715 L 8859 3399 z" id="avatar0_path9" fill="rgb(170, 218, 255)"/><path d="M 5673 4722 L 6318 5262 L 7197 4369 L 6852 4194 z" id="avatar0_path10" fill="rgb(170, 218, 255)"/><path d="M -2491 5275 L -3730 5418 L -3508 6787 L -2427 6278 z" id="avatar0_path11" fill="rgb(170, 218, 255)"/><path d="M 5060 -1846 L -289 -2387 L -35 4161 L 4441 4089 z" id="avatar0_path12" fill="#caedbb"/><rect x="-2348" y="-2400" width="3180" height="1772" id="avatar0_rect15" fill="rgb(202, 237, 187)"/><rect x="-1449" y="974" width="2749" height="2476" id="avatar0_rect16" fill="rgb(202, 237, 187)"/><rect x="3112" y="-2205" width="2567" height="2763" id="avatar0_rect17" fill="rgb(202, 237, 187)"/><path d="M 4119 -1075 L 1666 -1108 L 1432 -293 L 4367 -290 z" id="avatar0_path4" fill="rgb(49, 81, 120)"/><path d="M 1666 -1106 L 2593 -1081 L 2284 -1345 L 1873 -1332 z" id="avatar0_path6" fill="rgb(49, 81, 120)"/><path d="M 2527 -1319 L 2262 -1073 L 2970 -1095 L 2867 -1312 z" id="avatar0_path7" fill="rgb(49, 81, 120)"/><path d="M 2976 -1224 L 2839 -1074 L 3200 -1061 L 3135 -1215 z" id="avatar0_path13" fill="rgb(49, 81, 120)"/><path d="M 3758 -985 L 4121 -1075 L 4000 -1216 L 3928 -1237 z" id="avatar0_path14" fill="rgb(49, 81, 120)"/><path d="M 3275 -1258 L 2740 -1272 L 2818 -1173 L 3269 -1170 z" id="avatar0_path15" fill="rgb(255, 255, 255)"/><path d="M 4277 -685 L 1546 -740 L 1307 -295 L 4596 -276 z" id="avatar0_path16" fill="rgb(115, 148, 33)"/><path d="M 2922 -1049 L 2498 -606 L 3595 -514 L 3218 -937 z" id="avatar0_path17" fill="rgb(115, 148, 33)"/><path d="M 4208 -754 L 3209 -937 L 3386 -678 L 4289 -671 z" id="avatar0_path18" fill="rgb(115, 148, 33)"/><path d="M 2733 -993 L 2511 -1011 L 2676 -787 L 2922 -1048 z" id="avatar0_path20" fill="rgb(151, 178, 83)"/><path d="M 2467 -1073 L 2305 -999 L 2355 -721 L 2681 -784 z" id="avatar0_path21" fill="rgb(138, 183, 25)"/><path d="M 2306 -1000 L 1611 -933 L 1551 -742 L 2358 -721 z" id="avatar0_path22" fill="rgb(138, 183, 25)"/><path d="M 2620 -836 L 2362 -805 L 2354 -719 L 2626 -712 z" id="avatar0_path23" fill="rgb(61, 78, 17)"/><path d="M 2604 -829 L 2624 -712 L 2733 -824 L 2724 -882 z" id="avatar0_path24" fill="rgb(61, 78, 17)"/><path d="M 2378 -782 L 2360 -781 L 2365 -838 z" id="avatar0_path25" fill="rgb(61, 78, 17)"/><path d="M 2607 -786 L 2569 -787 L 2585 -870 z" id="avatar0_path26" fill="rgb(61, 78, 17)"/><path d="M 2701 -835 L 2652 -828 L 2672 -877 z" id="avatar0_path27" fill="rgb(61, 78, 17)"/><path d="M 2518 -782 L 2462 -765 L 2489 -859 z" id="avatar0_path28" fill="rgb(61, 78, 17)"/><path d="M 2186 -940 L 1915 -901 L 1893 -854 L 2163 -873 z" id="avatar0_path29" fill="rgb(61, 78, 17)"/><path d="M 2519 -1025 L 2490 -1061 L 2486 -1042 L 2514 -1005 z" id="avatar0_path32" fill="rgb(91, 116, 25)"/><path d="M 2514 -1005 L 2573 -1001 L 2572 -1020 L 2517 -1026 z" id="avatar0_path33" fill="rgb(91, 116, 25)"/><path d="M 3042 -290 L 2695 -571 L 2380 -528 L 2234 -292 z" id="avatar0_path34" fill="rgb(61, 78, 17)"/><path d="M 2102 -440 L 1732 -299 L 2373 -288 L 2477 -466 z" id="avatar0_path35" fill="rgb(61, 78, 17)"/><path d="M 3935 -851 L 3506 -883 L 4215 -752 L 4182 -854 z" id="avatar0_path36" fill="rgb(91, 116, 25)"/><path d="M 4348 -282 L 4353 -538 L 3533 -621 L 3423 -511 z" id="avatar0_path39" fill="rgb(131, 169, 38)"/><path d="M 3927 -500 L 3518 -511 L 3643 -279 L 4328 -287 z" id="avatar0_path40" fill="rgb(131, 169, 38)"/><path d="M 2999 -847 L 2902 -698 L 2944 -491 L 3158 -592 z" id="avatar0_path42" fill="rgb(131, 169, 38)"/><path d="M -530 -1568 L -1353 -1565 L -1345 -1306 L -492 -1294 z" id="avatar0_path43" fill="rgb(170, 218, 255)"/><path d="M -323 -1639 L -673 -1810 L -844 -1460 L -494 -1289 z" id="avatar0_path44" fill="rgb(170, 218, 255)"/><path d="M 171 -1960 L -629 -1950 L -740 -1645 L 211 -1631 z" id="avatar0_path45" fill="rgb(170, 218, 255)"/><path d="M -3972 -2265 L -4333 -2246 L -4120 921 L -3747 875 z" id="avatar0_path46" fill="rgb(180, 166, 86)"/><path d="M 3727 -1080 L 3878 -1046 L 3928 -1237 L 3795 -1203 z" id="avatar0_path48" fill="rgb(49, 108, 120)"/><path d="M 3777 -1168 L 3639 -1147 L 3649 -1065 L 3757 -1073 z" id="avatar0_path49" fill="rgb(65, 126, 151)"/><path d="M 3536 -1053 L 3699 -1056 L 3633 -1205 L 3592 -1223 z" id="avatar0_path50" fill="rgb(49, 81, 120)"/><path d="M 3940 -1234 L 3928 -1237 L 3912 -1176 L 3923 -1183 z" id="avatar0_path51" fill="rgb(255, 255, 255)"/><path d="M 3983 -1221 L 3959 -1228 L 3963 -1219 L 3975 -1214 z" id="avatar0_path52" fill="rgb(255, 255, 255)"/><path d="M 3218 -1315 L 3066 -1098 L 3375 -1009 L 3318 -1261 z" id="avatar0_path53" fill="rgb(49, 81, 120)"/><path d="M 3577 -1191 L 3328 -1217 L 3342 -1078 L 3568 -1076 z" id="avatar0_path54" fill="rgb(255, 255, 255)"/><path d="M 3387 -1171 L 3371 -1061 L 3456 -1067 L 3422 -1167 z" id="avatar0_path55" fill="rgb(49, 81, 120)"/><path d="M 3592 -1223 L 3548 -1203 L 3516 -1143 L 3568 -1076 z" id="avatar0_path56" fill="rgb(49, 108, 120)"/><path d="M 2265 -1386 L 2099 -1339 L 2229 -1256 L 2312 -1308 z" id="avatar0_path57" fill="rgb(255, 255, 255)"/><path d="M 2333 -1304 L 2265 -1387 L 2229 -1256 L 2296 -1228 z" id="avatar0_path59" fill="rgb(235, 239, 240)"/><path d="M 2642 -1363 L 2529 -1282 L 2744 -1304 L 2703 -1348 z" id="avatar0_path60" fill="rgb(49, 81, 120)"/><path d="M 2723 -1307 L 2855 -1289 L 2815 -1350 L 2765 -1364 z" id="avatar0_path61" fill="rgb(49, 81, 120)"/><path d="M 2848 -1278 L 2698 -1291 L 2678 -1199 L 2770 -1179 z" id="avatar0_path62" fill="rgb(49, 81, 120)"/><path d="M 2688 -1372 L 2659 -1359 L 2669 -1309 L 2709 -1342 z" id="avatar0_path63" fill="rgb(255, 255, 255)"/><path d="M 2815 -1350 L 2776 -1361 L 2783 -1348 L 2816 -1335 z" id="avatar0_path64" fill="rgb(255, 255, 255)"/></g></svg>