<svg xmlns="http://www.w3.org/2000/svg" width="1035" height="772" viewBox="134.4501833970669 67.22509169853345 527.1058326362281 393.1649302368774"><defs id="Defs"><pattern id="hardwood-floor" x="0" y="0" width="200" height="200" patternUnits="userSpaceOnUse"><rect x="0" y="0" width="11" height="51" fill="hsl(42, 44%, 46%)"/><rect x="10" y="0" width="11" height="51" fill="hsl(44, 37%, 48%)"/><rect x="20" y="0" width="11" height="51" fill="hsl(44, 45%, 46%)"/><rect x="30" y="0" width="11" height="51" fill="hsl(44, 40%, 50%)"/><rect x="40" y="0" width="11" height="51" fill="hsl(43, 38%, 46%)"/><rect x="50" y="0" width="51" height="11" fill="hsl(42, 38%, 50%)"/><rect x="50" y="10" width="51" height="11" fill="hsl(43, 42%, 46%)"/><rect x="50" y="20" width="51" height="11" fill="hsl(44, 41%, 49%)"/><rect x="50" y="30" width="51" height="11" fill="hsl(43, 44%, 46%)"/><rect x="50" y="40" width="51" height="11" fill="hsl(44, 41%, 50%)"/><rect x="0" y="50" width="51" height="11" fill="hsl(42, 36%, 48%)"/><rect x="0" y="60" width="51" height="11" fill="hsl(43, 46%, 46%)"/><rect x="0" y="70" width="51" height="11" fill="hsl(42, 44%, 49%)"/><rect x="0" y="80" width="51" height="11" fill="hsl(43, 40%, 47%)"/><rect x="0" y="90" width="51" height="11" fill="hsl(44, 37%, 50%)"/><rect x="50" y="50" width="11" height="51" fill="hsl(42, 41%, 50%)"/><rect x="60" y="50" width="11" height="51" fill="hsl(44, 39%, 49%)"/><rect x="70" y="50" width="11" height="51" fill="hsl(42, 46%, 46%)"/><rect x="80" y="50" width="11" height="51" fill="hsl(43, 42%, 49%)"/><rect x="90" y="50" width="11" height="51" fill="hsl(42, 39%, 47%)"/><rect x="0" y="100" width="11" height="51" fill="hsl(43, 42%, 50%)"/><rect x="10" y="100" width="11" height="51" fill="hsl(42, 41%, 47%)"/><rect x="20" y="100" width="11" height="51" fill="hsl(44, 40%, 49%)"/><rect x="30" y="100" width="11" height="51" fill="hsl(42, 39%, 47%)"/><rect x="40" y="100" width="11" height="51" fill="hsl(44, 43%, 48%)"/><rect x="50" y="100" width="51" height="11" fill="hsl(42, 43%, 46%)"/><rect x="50" y="110" width="51" height="11" fill="hsl(44, 44%, 49%)"/><rect x="50" y="120" width="51" height="11" fill="hsl(42, 43%, 46%)"/><rect x="50" y="130" width="51" height="11" fill="hsl(43, 40%, 49%)"/><rect x="50" y="140" width="51" height="11" fill="hsl(42, 36%, 46%)"/><rect x="0" y="150" width="51" height="11" fill="hsl(44, 43%, 50%)"/><rect x="0" y="160" width="51" height="11" fill="hsl(42, 37%, 50%)"/><rect x="0" y="170" width="51" height="11" fill="hsl(42, 43%, 47%)"/><rect x="0" y="180" width="51" height="11" fill="hsl(44, 39%, 50%)"/><rect x="0" y="190" width="51" height="11" fill="hsl(43, 43%, 46%)"/><rect x="50" y="150" width="11" height="51" fill="hsl(42, 44%, 50%)"/><rect x="60" y="150" width="11" height="51" fill="hsl(43, 42%, 46%)"/><rect x="70" y="150" width="11" height="51" fill="hsl(42, 43%, 49%)"/><rect x="80" y="150" width="11" height="51" fill="hsl(44, 45%, 46%)"/><rect x="90" y="150" width="11" height="51" fill="hsl(43, 44%, 49%)"/><rect x="100" y="0" width="11" height="51" fill="hsl(43, 40%, 46%)"/><rect x="110" y="0" width="11" height="51" fill="hsl(42, 45%, 50%)"/><rect x="120" y="0" width="11" height="51" fill="hsl(44, 40%, 50%)"/><rect x="130" y="0" width="11" height="51" fill="hsl(42, 45%, 46%)"/><rect x="140" y="0" width="11" height="51" fill="hsl(43, 36%, 48%)"/><rect x="150" y="0" width="51" height="11" fill="hsl(43, 44%, 46%)"/><rect x="150" y="10" width="51" height="11" fill="hsl(44, 36%, 48%)"/><rect x="150" y="20" width="51" height="11" fill="hsl(42, 40%, 49%)"/><rect x="150" y="30" width="51" height="11" fill="hsl(44, 46%, 50%)"/><rect x="150" y="40" width="51" height="11" fill="hsl(43, 37%, 46%)"/><rect x="100" y="50" width="51" height="11" fill="hsl(43, 43%, 50%)"/><rect x="100" y="60" width="51" height="11" fill="hsl(44, 36%, 47%)"/><rect x="100" y="70" width="51" height="11" fill="hsl(42, 45%, 47%)"/><rect x="100" y="80" width="51" height="11" fill="hsl(43, 41%, 50%)"/><rect x="100" y="90" width="51" height="11" fill="hsl(44, 40%, 47%)"/><rect x="150" y="50" width="11" height="51" fill="hsl(43, 37%, 50%)"/><rect x="160" y="50" width="11" height="51" fill="hsl(42, 45%, 47%)"/><rect x="170" y="50" width="11" height="51" fill="hsl(42, 36%, 48%)"/><rect x="180" y="50" width="11" height="51" fill="hsl(42, 46%, 48%)"/><rect x="190" y="50" width="11" height="51" fill="hsl(43, 39%, 47%)"/><rect x="100" y="100" width="11" height="51" fill="hsl(44, 42%, 49%)"/><rect x="110" y="100" width="11" height="51" fill="hsl(42, 43%, 46%)"/><rect x="120" y="100" width="11" height="51" fill="hsl(43, 40%, 50%)"/><rect x="130" y="100" width="11" height="51" fill="hsl(42, 37%, 47%)"/><rect x="140" y="100" width="11" height="51" fill="hsl(44, 39%, 50%)"/><rect x="150" y="100" width="51" height="11" fill="hsl(43, 45%, 46%)"/><rect x="150" y="110" width="51" height="11" fill="hsl(42, 42%, 48%)"/><rect x="150" y="120" width="51" height="11" fill="hsl(44, 38%, 49%)"/><rect x="150" y="130" width="51" height="11" fill="hsl(42, 42%, 48%)"/><rect x="150" y="140" width="51" height="11" fill="hsl(44, 45%, 49%)"/><rect x="100" y="150" width="51" height="11" fill="hsl(42, 43%, 47%)"/><rect x="100" y="160" width="51" height="11" fill="hsl(44, 36%, 48%)"/><rect x="100" y="170" width="51" height="11" fill="hsl(42, 42%, 47%)"/><rect x="100" y="180" width="51" height="11" fill="hsl(44, 45%, 49%)"/><rect x="100" y="190" width="51" height="11" fill="hsl(43, 38%, 48%)"/><rect x="150" y="150" width="11" height="51" fill="hsl(42, 42%, 46%)"/><rect x="160" y="150" width="11" height="51" fill="hsl(44, 43%, 48%)"/><rect x="170" y="150" width="11" height="51" fill="hsl(43, 36%, 47%)"/><rect x="180" y="150" width="11" height="51" fill="hsl(44, 45%, 49%)"/><rect x="190" y="150" width="11" height="51" fill="hsl(44, 37%, 50%)"/></pattern></defs><rect id="BackgroundRect" x="124.4501833970669" y="57.22509169853345" width="557.1058326362281" height="423.1649302368774" fill="url(#hardwood-floor)"/><g id="EditableElements"><rect x="213" y="304" width="19" height="248" id="avatar1_rect3" fill="rgb(135, 147, 156)"/><rect x="561" y="379" width="17" height="270" id="avatar1_rect4" fill="rgb(135, 147, 156)"/><rect x="750" y="205" width="17" height="264" id="avatar1_rect5" fill="rgb(135, 147, 156)"/><rect x="373" y="252" width="16" height="169" id="avatar1_rect6" fill="rgb(135, 147, 156)"/><rect x="231" y="319" width="11" height="232" id="avatar1_rect7" fill="rgb(88, 98, 106)"/><rect x="577" y="384" width="11" height="266" id="avatar1_rect8" fill="rgb(88, 98, 106)"/><rect x="386" y="252" width="10" height="166" id="avatar1_rect9" fill="rgb(88, 98, 106)"/><rect x="766" y="190" width="9" height="277" id="avatar1_rect10" fill="rgb(88, 98, 106)"/><path d="M 596 426 L 596 450 L 807 186 L 807 165 z" id="avatar1_path11" fill="rgb(88, 98, 106)"/><path d="M 168 278 L 168 302 L 596 450 L 596 426 z" id="avatar1_path12" fill="rgb(135, 147, 156)"/><path d="M 383 98 L 168 278 L 596 426 L 807 165 z" id="avatar1_path13" fill="rgb(100, 112, 121)"/><path d="M 231 541 L 231 563 L 213 552 z" id="avatar1_path14" fill="rgb(135, 147, 156)"/><path d="M 231 563 L 231 537 L 242 551 z" id="avatar1_path15" fill="rgb(88, 98, 106)"/><path d="M 386 430 L 373 421 L 386 413 z" id="avatar1_path16" fill="rgb(135, 147, 156)"/><path d="M 386 430 L 386 408 L 396 418 z" id="avatar1_path17" fill="rgb(88, 98, 106)"/><path d="M 561 649 L 577 644 L 577 659 z" id="avatar1_path18" fill="rgb(135, 147, 156)"/><path d="M 577 659 L 577 648 L 588 650 z" id="avatar1_path19" fill="rgb(88, 98, 106)"/><path d="M 766 478 L 750 469 L 766 460 z" id="avatar1_path20" fill="rgb(135, 147, 156)"/><path d="M 766 478 L 766 466 L 775 467 z" id="avatar1_path21" fill="rgb(88, 98, 106)"/><path d="M 522 164 L 417 144 L 301 251 L 406 280 z" id="avatar1_path23" fill="rgb(207, 202, 212)"/><path d="M 420 156 L 322 246 L 403 268 L 499 171 z" id="avatar1_path26" fill="rgb(221, 219, 223)"/><path d="M 447 164 L 404 149 L 382 166 L 447 166 z" id="avatar1_path27" fill="rgb(159, 130, 75)"/><path d="M 447 166 L 382 166 L 383 186 L 445 185 z" id="avatar1_path29" fill="rgb(185, 158, 106)"/><path d="M 414 159 L 410 159 L 411 163 L 415 163 z" id="avatar1_path30" fill="rgb(59, 48, 28)"/><path d="M 397 172 L 392 171 L 391 176 L 397 176 z" id="avatar1_path31" fill="rgb(59, 48, 28)"/><path d="M 426 171 L 423 172 L 425 175 L 429 174 z" id="avatar1_path32" fill="rgb(59, 48, 28)"/><path d="M 460 178 L 500 152 L 465 146 L 455 177 z" id="avatar1_path33" fill="rgb(159, 130, 75)"/><path d="M 499 162 L 500 152 L 460 178 L 459 191 z" id="avatar1_path34" fill="rgb(172, 141, 81)"/><path d="M 460 178 L 455 177 L 455 187 L 460 189 z" id="avatar1_path35" fill="rgb(172, 141, 81)"/><path d="M 481 169 L 482 164 L 485 164 L 484 167 z" id="avatar1_path38" fill="rgb(122, 0, 70)"/><path d="M 459 173 L 460 170 L 463 168 L 464 171 z" id="avatar1_path39" fill="rgb(122, 0, 70)"/><path d="M 423 201 L 464 209 L 482 191 L 424 191 z" id="avatar1_path42" fill="rgb(172, 141, 81)"/><path d="M 482 191 L 483 181 L 459 186 L 459 198 z" id="avatar1_path44" fill="rgb(172, 141, 81)"/><path d="M 424 191 L 465 198 L 483 181 L 427 187 z" id="avatar1_path45" fill="rgb(159, 130, 75)"/><path d="M 431 197 L 429 197 L 430 200 L 432 199 z" id="avatar1_path46" fill="rgb(14, 0, 150)"/><path d="M 449 188 L 447 190 L 448 193 L 451 190 z" id="avatar1_path47" fill="rgb(14, 0, 150)"/><path d="M 470 186 L 469 189 L 472 188 L 473 186 z" id="avatar1_path48" fill="rgb(14, 0, 150)"/><path d="M 462 202 L 459 203 L 461 204 L 463 204 z" id="avatar1_path49" fill="rgb(14, 0, 150)"/><path d="M 406 207 L 370 201 L 370 214 L 407 220 z" id="avatar1_path50" fill="rgb(185, 158, 106)"/><path d="M 406 207 L 407 220 L 420 204 L 420 193 z" id="avatar1_path51" fill="rgb(172, 141, 81)"/><path d="M 370 201 L 406 207 L 420 193 L 373 199 z" id="avatar1_path52" fill="rgb(159, 130, 75)"/><path d="M 400 197 L 397 198 L 397 201 L 402 199 z" id="avatar1_path53" fill="rgb(122, 0, 70)"/><path d="M 377 206 L 376 208 L 378 211 L 380 209 z" id="avatar1_path54" fill="rgb(122, 0, 70)"/><path d="M 399 210 L 396 211 L 398 212 L 401 213 z" id="avatar1_path55" fill="rgb(122, 0, 70)"/><path d="M 394 219 L 341 221 L 341 236 L 394 233 z" id="avatar1_path56" fill="rgb(185, 158, 106)"/><path d="M 361 202 L 341 221 L 394 219 L 394 215 z" id="avatar1_path57" fill="rgb(159, 130, 75)"/><path d="M 364 209 L 360 210 L 361 213 L 366 213 z" id="avatar1_path58" fill="rgb(14, 0, 150)"/><path d="M 350 225 L 348 225 L 349 227 L 351 227 z" id="avatar1_path59" fill="rgb(14, 0, 150)"/><path d="M 380 225 L 377 226 L 380 228 L 382 227 z" id="avatar1_path60" fill="rgb(14, 0, 150)"/><path d="M 475 152 L 471 153 L 470 155 L 474 156 z" id="avatar1_path61" fill="rgb(122, 0, 70)"/><path d="M 420 247 L 365 253 L 365 266 L 420 261 z" id="avatar1_path62" fill="rgb(185, 158, 106)"/><path d="M 366 250 L 365 253 L 420 247 L 407 227 z" id="avatar1_path63" fill="rgb(159, 130, 75)"/><path d="M 404 236 L 402 237 L 404 239 L 406 238 z" id="avatar1_path64" fill="rgb(59, 48, 28)"/><path d="M 386 245 L 383 246 L 386 250 L 390 247 z" id="avatar1_path65" fill="rgb(59, 48, 28)"/><path d="M 411 252 L 408 252 L 409 254 L 411 254 z" id="avatar1_path66" fill="rgb(59, 48, 28)"/><path d="M 380 257 L 377 259 L 379 261 L 382 259 z" id="avatar1_path67" fill="rgb(59, 48, 28)"/></g></svg>